<svg version="1.1" id="Layer_1" xmlns="http://www.w3.org/2000/svg" xmlns:xlink="http://www.w3.org/1999/xlink" x="0px" y="0px"
	 width="100%" viewBox="0 0 896 1024" enable-background="new 0 0 896 1024" xml:space="preserve">
<path fill="#e2592b" opacity="1.000000" stroke="none" 
	d="
M195.636383,639.722168 
	C200.485886,628.885864 205.244888,618.424255 209.868073,607.902954 
	C211.344284,604.543457 212.971786,603.083862 216.635941,605.441162 
	C220.364014,607.839539 224.763489,608.544189 229.122925,608.278198 
	C233.011459,608.040955 234.164459,609.489319 233.798737,613.215942 
	C230.624893,645.556946 236.427673,675.909180 254.212311,703.507629 
	C255.930603,706.174133 256.135162,708.492676 254.837006,711.406860 
	C238.707108,747.616028 222.654861,783.859924 206.618759,820.110840 
	C203.047440,828.183960 199.617310,836.319580 196.119736,844.425415 
	C195.388443,846.120239 194.428711,847.941467 195.889252,849.568237 
	C197.498474,851.360596 199.398071,849.983765 200.969467,849.342651 
	C223.170029,840.284424 245.348297,831.171265 267.510437,822.019226 
	C302.600830,807.528625 337.689301,793.032898 372.728485,778.419250 
	C375.471497,777.275208 377.532318,777.314636 380.167725,778.734924 
	C409.458252,794.520874 440.860596,798.465332 473.579285,795.433655 
	C494.233490,793.519897 513.913574,788.620239 531.999390,778.191406 
	C533.981079,777.048706 535.686707,777.387573 537.662048,778.208313 
	C593.166565,801.272034 648.689697,824.290649 704.212036,847.311462 
	C706.363953,848.203613 708.555420,849.002197 710.694092,849.924011 
	C712.098145,850.529358 713.591125,851.330566 714.895508,850.161926 
	C716.427002,848.790161 715.603638,847.075928 714.938843,845.545654 
	C711.354858,837.295227 707.766052,829.046814 704.138611,820.815430 
	C688.018738,784.237061 671.914307,747.651794 655.699280,711.115662 
	C654.457336,708.317322 654.735535,706.241943 656.335815,703.730530 
	C672.039551,679.085327 678.945129,652.074402 677.672058,622.937500 
	C677.526978,619.616394 677.141846,616.291931 676.639832,613.003845 
	C676.058044,609.192383 677.680847,607.757324 681.336060,607.967407 
	C685.911621,608.230408 690.329285,607.585815 694.345093,605.203735 
	C697.346619,603.423340 699.077515,604.218323 700.491272,607.437134 
	C708.194153,624.974915 716.071655,642.436035 723.863770,659.934692 
	C752.323608,723.846252 780.805847,787.747681 809.216492,851.681030 
	C831.470337,901.759521 853.634460,951.877930 875.816711,1001.988159 
	C876.540161,1003.622437 877.630676,1005.189819 877.390198,1007.357483 
	C875.030884,1008.365601 873.186218,1006.806519 871.338257,1006.048523 
	C819.560913,984.808655 767.802612,963.522278 716.052551,942.216125 
	C651.368164,915.584656 586.697815,888.919006 522.012878,862.288757 
	C501.074158,853.668457 480.095734,845.144409 459.170563,836.491577 
	C456.358734,835.328918 453.915527,835.331055 451.052094,836.514832 
	C391.650909,861.074280 332.211090,885.540100 272.780548,910.028503 
	C222.583527,930.712158 172.395004,951.416504 122.190353,972.081726 
	C94.621773,983.429504 67.030228,994.721497 39.438908,1006.013855 
	C37.618347,1006.758911 35.850407,1007.835938 33.654079,1007.507935 
	C32.005440,1005.435669 33.698574,1003.742310 34.437641,1002.064819 
	C48.471092,970.211548 62.462948,938.339355 76.646637,906.552917 
	C106.575722,839.480042 136.632965,772.464294 166.589233,705.403503 
	C176.301437,683.661560 185.862869,661.852295 195.636383,639.722168 
z"/>
<path fill="#ffffff" opacity="1.000000" stroke="none" d="
M195.558868,458.583374 
	C201.613007,451.968933 208.443512,446.972290 216.214859,443.314636 
	C235.228989,434.365448 253.210831,423.485291 271.795685,413.738312 
	C289.627960,404.385986 308.134521,397.080658 328.706299,396.770782 
	C332.571594,396.712555 336.528320,396.763275 340.078278,398.043854 
	C346.864502,400.491760 352.857941,399.002686 359.315155,396.529327 
	C385.398773,386.538208 412.376740,384.618713 439.953644,388.272919 
	C451.893280,389.855072 463.890289,388.952179 475.839996,387.598267 
	C503.345367,384.481842 530.001465,388.037903 555.742981,398.184174 
	C559.148315,399.526398 562.265076,399.901550 565.883667,398.981659 
	C584.832947,394.164398 602.868469,398.066803 620.520020,405.141907 
	C639.623230,412.798920 656.879883,423.989319 674.992249,433.542938 
	C682.800781,437.661652 690.813354,441.398743 698.568848,445.611755 
	C716.992126,455.619873 727.292480,470.597260 725.955627,492.197357 
	C725.297485,502.830719 721.539978,512.668762 717.024536,522.194580 
	C708.880798,539.374451 701.499817,556.697998 697.990417,575.648254 
	C695.152466,590.973206 680.376465,595.573853 668.094116,585.994934 
	C664.807495,583.431763 662.224609,580.174438 658.742432,577.270569 
	C658.062744,585.537720 657.802429,593.692627 658.713806,601.853210 
	C660.995605,622.283752 662.150452,642.622620 656.393127,662.788025 
	C649.482666,686.992432 635.782532,706.586304 616.692749,722.654602 
	C611.464417,727.055359 606.129700,731.328735 600.353333,734.996948 
	C598.139893,736.402527 596.836792,738.480896 595.466248,740.572815 
	C581.140747,762.437683 557.118164,769.948486 533.035645,760.092896 
	C531.365845,759.409546 529.863037,758.307434 527.979431,759.844910 
	C513.706604,771.494324 496.536560,775.528015 478.902740,777.819824 
	C451.398743,781.394409 424.402435,779.199280 398.302551,769.182495 
	C393.285797,767.257202 388.722565,764.478333 384.431824,761.306396 
	C382.045654,759.542480 379.989258,759.253235 377.109772,760.351990 
	C352.319977,769.811829 329.453094,762.460510 314.812714,740.298096 
	C312.308167,736.506775 308.769745,734.147766 305.264435,731.660767 
	C287.881744,719.328186 273.318359,704.353638 263.247467,685.482788 
	C250.747574,662.060425 247.451477,636.989075 251.129105,610.846863 
	C252.756073,599.281616 253.207474,587.654480 252.657486,575.269897 
	C249.627701,578.550049 247.218979,581.674133 244.297836,584.207397 
	C239.030853,588.774902 233.232971,592.448425 225.724304,590.478760 
	C217.365860,588.286072 213.445740,581.899475 212.146011,574.154724 
	C209.096802,555.984863 201.549759,539.532837 193.864029,523.065247 
	C188.409164,511.377533 183.989655,499.400757 184.598175,486.132599 
	C185.073227,475.774933 188.230820,466.562866 195.558868,458.583374 
"/>
<path fill="#000000" opacity="1.000000" stroke="none" 
	d="
M195.558868,458.583374 
	C201.613007,451.968933 208.443512,446.972290 216.214859,443.314636 
	C235.228989,434.365448 253.210831,423.485291 271.795685,413.738312 
	C289.627960,404.385986 308.134521,397.080658 328.706299,396.770782 
	C332.571594,396.712555 336.528320,396.763275 340.078278,398.043854 
	C346.864502,400.491760 352.857941,399.002686 359.315155,396.529327 
	C385.398773,386.538208 412.376740,384.618713 439.953644,388.272919 
	C451.893280,389.855072 463.890289,388.952179 475.839996,387.598267 
	C503.345367,384.481842 530.001465,388.037903 555.742981,398.184174 
	C559.148315,399.526398 562.265076,399.901550 565.883667,398.981659 
	C584.832947,394.164398 602.868469,398.066803 620.520020,405.141907 
	C639.623230,412.798920 656.879883,423.989319 674.992249,433.542938 
	C682.800781,437.661652 690.813354,441.398743 698.568848,445.611755 
	C716.992126,455.619873 727.292480,470.597260 725.955627,492.197357 
	C725.297485,502.830719 721.539978,512.668762 717.024536,522.194580 
	C708.880798,539.374451 701.499817,556.697998 697.990417,575.648254 
	C695.152466,590.973206 680.376465,595.573853 668.094116,585.994934 
	C664.807495,583.431763 662.224609,580.174438 658.742432,577.270569 
	C658.062744,585.537720 657.802429,593.692627 658.713806,601.853210 
	C660.995605,622.283752 662.150452,642.622620 656.393127,662.788025 
	C649.482666,686.992432 635.782532,706.586304 616.692749,722.654602 
	C611.464417,727.055359 606.129700,731.328735 600.353333,734.996948 
	C598.139893,736.402527 596.836792,738.480896 595.466248,740.572815 
	C581.140747,762.437683 557.118164,769.948486 533.035645,760.092896 
	C531.365845,759.409546 529.863037,758.307434 527.979431,759.844910 
	C513.706604,771.494324 496.536560,775.528015 478.902740,777.819824 
	C451.398743,781.394409 424.402435,779.199280 398.302551,769.182495 
	C393.285797,767.257202 388.722565,764.478333 384.431824,761.306396 
	C382.045654,759.542480 379.989258,759.253235 377.109772,760.351990 
	C352.319977,769.811829 329.453094,762.460510 314.812714,740.298096 
	C312.308167,736.506775 308.769745,734.147766 305.264435,731.660767 
	C287.881744,719.328186 273.318359,704.353638 263.247467,685.482788 
	C250.747574,662.060425 247.451477,636.989075 251.129105,610.846863 
	C252.756073,599.281616 253.207474,587.654480 252.657486,575.269897 
	C249.627701,578.550049 247.218979,581.674133 244.297836,584.207397 
	C239.030853,588.774902 233.232971,592.448425 225.724304,590.478760 
	C217.365860,588.286072 213.445740,581.899475 212.146011,574.154724 
	C209.096802,555.984863 201.549759,539.532837 193.864029,523.065247 
	C188.409164,511.377533 183.989655,499.400757 184.598175,486.132599 
	C185.073227,475.774933 188.230820,466.562866 195.558868,458.583374 
M526.707825,485.903412 
	C533.795410,485.805786 540.663757,486.950287 547.141357,489.874603 
	C561.158325,496.202484 575.557800,501.252197 590.737427,504.064728 
	C597.443481,505.307220 600.862915,509.865662 599.818176,515.013977 
	C598.624573,520.896301 593.884521,523.536987 586.645203,522.217651 
	C577.298462,520.514221 568.135742,518.124695 559.082947,515.195923 
	C551.286560,512.673645 544.164368,508.526520 536.367188,506.111084 
	C522.430786,501.793762 511.249817,508.980927 508.936432,523.254944 
	C508.223724,527.652405 508.584198,531.908813 509.328705,536.159790 
	C511.719513,549.810059 517.797852,560.897888 531.430908,566.848328 
	C531.833130,565.926758 532.298279,565.072754 532.589050,564.162964 
	C537.590149,548.512878 548.015442,538.521362 564.159973,535.461487 
	C588.701721,530.810181 612.003845,548.899170 622.749268,567.564636 
	C624.766785,571.069153 623.859009,575.133362 620.664307,578.086853 
	C617.562622,580.954407 614.029724,581.675659 610.074890,579.760254 
	C608.957764,579.219299 608.046021,577.935425 606.219360,578.579163 
	C602.304321,597.019043 590.064026,606.218811 570.922546,607.836731 
	C580.849121,623.424072 588.845825,638.889343 594.178772,655.660095 
	C599.472046,672.305786 602.750244,689.335693 603.946350,707.329773 
	C605.366577,706.562134 606.000061,706.350769 606.468628,705.947693 
	C632.611084,683.461426 644.427368,654.879944 641.022705,620.696899 
	C638.899780,599.382141 638.090088,578.193298 640.257874,556.902344 
	C641.210632,547.545532 641.500427,538.389832 636.927002,529.631714 
	C634.706177,525.378784 633.381897,520.656677 631.665161,516.141846 
	C621.760986,490.094788 609.268921,465.602051 589.760742,445.202087 
	C560.654541,414.765381 524.551636,403.420898 483.343414,406.023407 
	C468.246063,406.976898 453.231018,409.331757 438.021790,407.062744 
	C426.152527,405.291992 414.229889,404.943481 402.180969,406.058105 
	C363.149811,409.668610 332.533569,427.787811 309.012543,458.739227 
	C293.690826,478.901276 284.340942,501.976715 275.048889,525.252869 
	C270.686340,536.180847 269.282959,546.853760 270.492157,558.237549 
	C272.504974,577.186768 272.306061,596.069092 269.898682,615.025635 
	C266.206848,644.095825 272.458282,670.674011 291.580109,693.551208 
	C295.793610,698.592224 300.393188,703.251465 306.573944,707.761169 
	C308.800873,670.975342 319.254395,637.936890 339.743103,607.662659 
	C319.720917,606.416870 308.114899,596.348328 304.101990,577.695618 
	C296.730225,581.608276 292.702789,581.499939 289.159241,577.581787 
	C285.572815,573.616211 285.999939,568.841736 290.636139,562.696777 
	C299.130157,551.438538 309.391388,542.451782 322.892853,537.582458 
	C346.825134,528.951294 369.630188,539.957153 377.569519,564.002319 
	C377.915863,565.051147 377.933929,566.349487 379.113708,566.987427 
	C399.325745,558.306213 404.279205,534.638672 401.009521,520.143311 
	C398.809753,510.391083 391.313843,505.134979 381.325897,505.040253 
	C375.975311,504.989532 371.205292,506.699341 366.508514,508.954163 
	C352.126068,515.858765 336.930328,520.114014 321.206146,522.485229 
	C315.796783,523.300903 311.309723,520.015747 310.361755,515.146484 
	C309.477997,510.607056 312.369995,506.073792 317.458984,504.585022 
	C320.965240,503.559265 324.608704,503.007019 328.183563,502.210571 
	C341.263977,499.296326 353.373291,493.682526 365.820618,488.942963 
	C391.826660,479.040710 416.125763,493.537811 420.513275,520.826416 
	C421.665588,527.993225 420.403961,534.971436 419.688049,542.582642 
	C427.865326,539.910034 435.465851,537.503235 443.410767,536.486816 
	C445.524750,536.216431 445.713776,534.432373 445.799957,532.672607 
	C446.592926,516.474731 443.734924,501.055176 435.100281,487.166595 
	C427.457031,474.872711 417.479004,465.886871 401.705200,466.192535 
	C393.024384,466.360779 385.041229,469.088654 377.083038,472.122498 
	C371.648041,474.194489 366.740875,472.271423 364.582092,467.365692 
	C362.544891,462.736237 364.268341,457.461700 369.255615,455.172821 
	C381.200714,449.690765 393.721558,446.182159 406.994141,447.325073 
	C426.956451,449.044098 440.532196,460.654816 451.000000,476.758514 
	C452.236877,478.661377 452.901123,481.053619 455.230316,482.077576 
	C457.110138,481.440826 457.555664,479.682343 458.392303,478.319061 
	C462.162323,472.175995 466.535156,466.510864 471.823517,461.615875 
	C493.034729,441.982391 517.746582,444.296661 542.050476,455.771545 
	C546.379700,457.815552 547.580017,463.370880 545.613037,467.542023 
	C543.532471,471.954132 538.578003,474.073547 533.882751,472.455322 
	C531.364563,471.587402 528.945923,470.426056 526.418701,469.589386 
	C518.274719,466.893250 509.977448,465.216736 501.371246,466.803986 
	C489.428589,469.006622 481.740112,476.985870 475.621948,486.637085 
	C466.653290,500.784882 464.116882,516.601318 464.542206,533.060608 
	C464.606903,535.563843 466.076660,536.469604 468.384888,536.732056 
	C474.539368,537.431763 480.439606,539.209961 486.305176,541.128601 
	C487.628967,541.561707 488.999054,542.607666 490.454071,541.434753 
	C488.065094,506.011536 497.969604,490.493011 526.707825,485.903412 
M429.393799,637.158875 
	C423.057190,631.399048 423.057159,631.398987 430.616302,627.098877 
	C438.250519,622.756165 441.378448,616.910156 439.775543,610.009583 
	C439.027679,606.789978 437.058838,605.028870 433.720093,605.367981 
	C430.367584,605.708435 429.486084,608.115295 429.499817,611.092224 
	C429.545471,620.994873 422.414459,625.498291 413.585815,620.738037 
	C410.328888,618.981934 407.952454,619.262756 404.853577,620.740051 
	C383.494324,630.922668 365.030396,644.872498 349.857697,663.017334 
	C339.190399,675.774231 330.544922,689.691467 326.960205,706.266663 
	C324.040924,719.765015 329.684875,733.372803 341.439575,740.806702 
	C352.134979,747.570679 366.028442,746.431458 376.830048,738.024353 
	C384.200775,732.287781 389.073944,724.506409 394.436920,717.092957 
	C406.898987,699.866028 420.759277,684.299988 442.244354,678.131104 
	C444.967896,677.349121 445.756439,675.510620 445.725616,672.857605 
	C445.638580,665.365784 445.569061,657.869568 445.745911,650.381042 
	C445.816864,647.376160 444.534393,645.882690 441.948517,644.737366 
	C437.682983,642.848145 433.646423,640.500488 429.393799,637.158875 
M523.766296,727.730591 
	C527.225830,732.010681 530.732971,736.258606 535.276489,739.458679 
	C544.791321,746.159973 555.212891,747.290771 565.585999,742.523560 
	C576.184692,737.652649 582.881226,729.300293 583.896484,717.090820 
	C584.864929,705.445129 581.105896,694.923767 575.646912,685.142578 
	C558.925354,655.181458 534.288208,633.779053 503.109070,619.738770 
	C501.708069,619.107849 500.447144,618.823792 498.845337,619.500000 
	C486.085205,624.886353 482.505707,622.969727 480.712250,609.855774 
	C480.403900,607.601379 479.348633,606.073425 477.194946,605.535400 
	C474.881714,604.957642 472.913055,605.725525 471.517395,607.706665 
	C470.414642,609.271973 470.171844,611.080750 470.174500,612.944092 
	C470.186768,621.526306 476.009399,625.590942 482.760620,628.659485 
	C486.660522,630.432007 486.577515,632.280701 483.734436,634.809998 
	C479.098602,638.934204 473.977539,642.369446 468.302704,644.852539 
	C465.590698,646.039246 464.681366,647.657288 464.795319,650.605408 
	C465.065369,657.592529 465.149109,664.600342 464.929169,671.587891 
	C464.804657,675.543518 466.078003,677.621643 470.031311,678.744324 
	C480.503662,681.718262 489.281097,687.625854 497.104858,695.128540 
	C507.146729,704.758301 515.407227,715.814514 523.766296,727.730591 
M232.575867,568.772644 
	C236.132355,565.402649 238.536346,561.208435 240.937668,557.020142 
	C250.273468,540.737305 255.710464,522.811707 262.436157,505.446930 
	C275.069672,472.828979 292.265015,443.360840 319.190765,420.314667 
	C319.962524,419.654144 321.318085,419.070892 320.568359,417.519714 
	C318.760162,416.785492 316.947449,417.241211 315.168365,417.572235 
	C307.940155,418.917114 300.976349,421.112427 294.222595,424.032471 
	C276.751312,431.586395 260.938965,442.255310 243.951965,450.724182 
	C234.719101,455.327271 225.277924,459.570099 216.557541,465.137939 
	C205.921967,471.928589 201.973755,481.325562 203.963303,493.747192 
	C205.136993,501.074890 207.667801,507.886597 210.814636,514.527832 
	C218.662323,531.089905 226.395737,547.688416 229.746994,565.917908 
	C229.965439,567.106079 229.622742,569.225769 232.575867,568.772644 
M661.534241,448.069305 
	C657.432373,445.853760 653.332825,443.634064 649.228333,441.423340 
	C634.004578,433.223480 619.390808,423.719177 602.427917,419.213196 
	C598.191772,418.087860 593.937317,416.528534 589.312805,417.510406 
	C589.501770,419.721893 591.191162,420.457031 592.385193,421.455536 
	C601.768433,429.302307 609.756409,438.445984 617.188599,448.091217 
	C634.507324,470.567047 644.796875,496.577271 654.625793,522.816956 
	C660.060791,537.326538 665.674500,551.762573 674.571228,564.618896 
	C675.758545,566.334656 676.690063,568.414246 678.964539,568.969910 
	C680.143616,568.408081 680.296387,567.346680 680.466736,566.410950 
	C683.418701,550.196350 689.771240,535.208313 696.899109,520.486877 
	C700.670471,512.697693 704.373596,504.894928 706.188538,496.319550 
	C709.207642,482.055389 705.190430,471.752228 692.652710,464.512085 
	C682.713684,458.772614 672.364563,453.743469 661.534241,448.069305 
M508.516754,738.944763 
	C500.446899,728.156372 493.279175,716.533569 482.783936,707.854675 
	C462.341278,690.949707 447.675293,691.450500 427.997986,707.716675 
	C423.634644,711.323608 419.756805,715.476196 416.349121,720.031433 
	C411.862732,726.028687 407.345947,732.003357 402.887787,738.021484 
	C395.812531,747.572449 395.675903,748.018860 407.279541,752.093201 
	C437.794373,762.807678 468.637115,762.633240 499.515625,753.585571 
	C504.559143,752.107727 509.545746,750.197815 513.747742,746.017151 
	C512.056335,743.747009 510.486389,741.639832 508.516754,738.944763 
M454.556213,554.293884 
	C448.683502,554.213013 442.961578,555.223267 437.279419,556.602661 
	C423.037079,560.060181 411.064117,567.858521 399.354797,576.223877 
	C378.097443,591.410522 359.615448,609.165710 346.912170,632.336548 
	C345.621094,634.691528 344.090912,636.951782 343.561798,640.524475 
	C345.122009,639.460449 346.037506,639.022522 346.715576,638.346436 
	C363.472382,621.640320 383.309784,609.568420 404.670288,599.792603 
	C406.273163,599.059021 407.404022,597.996277 408.206451,596.448669 
	C413.068024,587.072876 421.297760,581.941589 431.008484,579.053589 
	C444.841705,574.939575 459.015930,574.838196 473.068909,577.373535 
	C485.450195,579.607361 496.206329,584.960999 502.171783,597.011047 
	C503.263275,599.215820 505.398926,599.781128 507.336365,600.663574 
	C527.806519,609.986938 546.816528,621.484131 562.737854,637.631958 
	C563.958557,638.870117 565.181396,640.263611 567.518250,640.811157 
	C566.955933,639.453430 566.614136,638.374939 566.085938,637.397217 
	C564.028503,633.588745 562.104858,629.689697 559.786743,626.043457 
	C542.353027,598.621155 518.027588,578.704102 490.030060,563.046814 
	C479.450256,557.130188 467.742859,554.312622 454.556213,554.293884 
M565.739563,556.723450 
	C561.602966,555.767761 558.267456,557.183899 556.691467,560.978149 
	C555.256409,564.433105 555.979248,567.978149 559.319458,570.296997 
	C562.419189,572.448853 565.654785,572.167664 568.576294,569.867493 
	C573.335144,566.120667 572.406433,560.784058 565.739563,556.723450 
M351.950317,558.502747 
	C346.081238,554.961853 340.080322,556.899414 339.259491,562.665222 
	C338.741699,566.302795 339.958710,569.245605 343.401672,570.893677 
	C346.593414,572.421509 349.635925,571.933411 352.036255,569.350403 
	C355.036469,566.121826 355.197571,562.588501 351.950317,558.502747 
z"/>
<path fill="#e2592b" opacity="1.000000" stroke="none" 
	d="
M364.726135,376.773834 
	C354.838013,380.842407 345.312378,382.755737 334.808136,380.470367 
	C327.200409,378.815216 319.206848,380.184021 311.454956,381.519470 
	C310.180115,381.739136 308.875092,382.381958 306.477509,380.573334 
	C355.690613,270.065582 405.029175,159.276154 454.367737,48.486721 
	C454.930542,48.486580 455.493378,48.486443 456.056183,48.486301 
	C505.493500,159.262955 554.930847,270.039612 604.240540,380.530304 
	C601.545288,382.643921 599.920654,381.797607 598.345154,381.494690 
	C587.572632,379.423553 576.789307,379.521271 566.067627,381.654938 
	C562.784485,382.308350 559.851868,381.961731 556.813782,380.811890 
	C542.103455,375.244659 527.003357,371.233521 511.252838,370.218323 
	C507.289795,369.962830 505.903992,367.524353 504.579803,364.520874 
	C492.888275,338.002319 481.166840,311.496979 469.457855,284.986145 
	C465.958252,277.062500 462.504517,269.118286 458.949890,261.219452 
	C458.164642,259.474518 458.002319,256.787598 455.672699,256.609772 
	C452.985779,256.404633 452.465820,259.213806 451.635315,261.072174 
	C444.162018,277.795258 436.782410,294.560272 429.390106,311.319519 
	C421.592255,328.998169 413.719147,346.644684 406.090454,364.396149 
	C404.328186,368.496826 401.769287,370.004517 397.374939,370.281189 
	C386.371582,370.973938 375.655151,373.473480 364.726135,376.773834 
z"/>
</svg>