<?xml version="1.0" encoding="UTF-8"?>
<svg xmlns="http://www.w3.org/2000/svg" viewBox="0 0 2400 400" width="2400" height="400">
<path d="M852.69 51.19C859.01 49.97 866.39 51.01 872.53 51.97C875.13 52.38 877.87 51.62 880.47 52.03C884.38 52.64 888.41 53.38 892.31 54.19C901.42 56.08 910.35 60.11 919 63.5C924.76 65.76 933.88 71.82 938.97 75.53C940.49 76.64 941.51 78.36 943.03 79.47C965.03 95.52 982.73 125.15 989.19 151.31C989.55 152.78 990.51 154.21 990.81 155.69C995.22 176.94 998.46 199.61 995.03 221.53C994.78 223.15 995.22 224.85 994.97 226.47C985.13 289.29 940.78 344.13 877.69 359.19C863.96 362.46 853.79 363 839.5 363C835.98 363 832.01 363.51 828.53 362.97C808.81 359.88 789.57 354.54 773.03 342.47C751.42 326.69 733.24 300.42 725.81 274.69C725.47 273.5 724.53 272.5 724.19 271.31C721.18 260.88 718.7 250.13 717.03 239.47C716.73 237.52 717.27 235.48 716.97 233.53C715.69 225.34 716 216.92 716 208.5C716 205.3 715.54 201.7 716.03 198.53C717.16 191.29 717.8 183.91 719.19 176.69C720.26 171.14 722.46 165.8 723.81 160.31C727.08 147.07 733.11 132.6 740.53 121.03C755.32 97.96 778.2 73.77 804.31 63.81C808.8 62.1 813.07 59.52 817.69 58.19C824.48 56.23 831.59 54.17 838.53 53.03C843.24 52.26 848.03 52.08 852.69 51.19ZM1279 78.5C1277.93 83.86 1267.46 102.04 1263.5 106C1259.99 104.25 1257.19 100.88 1253.97 98.53C1245.5 92.35 1234.53 86.71 1224.31 84.19C1211.73 81.08 1196.47 80.53 1183.69 83.19C1166.76 86.7 1150.77 101.71 1146.81 118.31C1145.58 123.48 1144.17 128.97 1145.03 134.47C1150.07 166.65 1178.92 179.95 1205.34 193.16C1237.81 209.39 1272.9 231.76 1278.97 270.53C1280.4 279.68 1280.4 289.32 1278.97 298.47C1274.89 324.53 1253.76 347.49 1229.31 356.81C1221.4 359.83 1212.72 361.68 1204.47 362.97C1201.55 363.43 1198.45 362.57 1195.53 363.03C1189.68 363.95 1186.32 363.95 1180.47 363.03C1177.87 362.62 1175.13 363.38 1172.53 362.97C1168.28 362.3 1163.94 361.66 1159.69 360.81C1143.55 357.59 1127.3 349.15 1114.03 339.47C1112.89 338.64 1112.11 337.36 1110.97 336.53C1106.15 333.02 1101.26 329.76 1097 325.5C1103.17 317.33 1109.33 309.17 1115.5 301C1120.1 303.3 1122.91 307.46 1127.03 310.47C1133.78 315.4 1143.94 322.86 1151.69 325.81C1159.79 328.9 1168.03 331.64 1176.53 332.97C1180.33 333.56 1184.66 333 1188.5 333C1211.43 333 1230.36 326.7 1242.84 306.34C1246.22 300.84 1247.01 293.61 1247.97 287.47C1248.48 284.23 1247.51 281.5 1247.03 278.47C1246.78 276.89 1247.13 275.28 1246.81 273.69C1243.09 255.08 1226.93 243.02 1212.03 233.47C1185.12 216.22 1146.59 202.09 1127.53 175.97C1123.14 169.95 1119.83 162.25 1117.19 155.31C1115.67 151.34 1114.68 146.62 1114.03 142.47C1113.57 139.55 1114.43 136.45 1113.97 133.53C1113.8 132.47 1113.06 131.57 1113.06 130.5C1113.06 129.43 1113.8 128.53 1113.97 127.47C1114.38 124.87 1113.62 122.13 1114.03 119.53C1114.89 114.02 1116.17 107.97 1118.19 102.69C1125.57 83.31 1143.29 65.58 1162.69 58.19C1169.92 55.43 1177.96 53.22 1185.53 52.03C1187.15 51.78 1188.85 52.22 1190.47 51.97C1197.24 50.91 1205.49 49.94 1212.47 51.03C1229.17 53.65 1246.48 56.83 1261.34 66.16C1265.61 68.83 1269.9 71.56 1273.97 74.53C1275.8 75.86 1276.94 77.42 1279 78.5ZM1649 82.5C1645.17 92.67 1641.33 102.83 1637.5 113C1634.28 112.31 1633.54 110.41 1630.97 108.53C1625.54 104.57 1619.62 101.15 1613.97 97.53C1602.72 90.32 1585.36 85.05 1572.47 83.03C1570.52 82.73 1568.48 83.27 1566.53 82.97C1556.8 81.44 1546.2 81.44 1536.47 82.97C1534.85 83.22 1533.15 82.78 1531.53 83.03C1509.32 86.51 1489.94 97.46 1472.03 110.53C1469.46 112.41 1467.25 115.25 1465 117.5C1454.95 127.55 1448.74 135.56 1441.16 147.66C1431.4 163.21 1428.76 182.1 1426.03 199.53C1425.59 202.38 1426 205.62 1426 208.5C1426 219.64 1426.67 227.98 1428.81 238.69C1435.22 270.72 1453.28 299.68 1481.03 317.47C1516.81 340.4 1569.19 337.4 1604.66 315.16C1613.16 309.82 1622.33 305.17 1629.5 298C1632.5 299.57 1633.01 302.22 1634.19 305.31C1636.74 312 1641.52 319.35 1642 326.5C1637.38 331.12 1631.48 334.04 1626.03 337.53C1613.88 345.32 1600.78 352.71 1586.69 356.19C1578.56 358.19 1570.73 360.68 1562.47 361.97C1560.85 362.22 1559.15 361.78 1557.53 362.03C1538.65 364.99 1516.04 363.34 1497.69 358.81C1491.65 357.32 1486.09 354.39 1480.31 352.19C1448.74 340.15 1422.75 311.14 1408.19 281.31C1403.15 270.99 1397.86 254.65 1396.03 243.47C1395.49 240.16 1395.49 236.85 1394.97 233.53C1393.51 224.21 1392.12 214.14 1393 204.5C1393.13 203.02 1393.74 201.9 1393.97 200.47C1394.79 195.21 1394.21 189.79 1395.03 184.53C1396.86 172.84 1400.57 161.43 1404.81 150.31C1406.94 144.74 1408.94 138.79 1412.16 133.66C1416.25 127.13 1419.99 120.25 1424.53 114.03C1427.05 110.58 1430.02 107.48 1432.53 104.03C1434.28 101.64 1436.91 99.59 1439 97.5C1446.86 89.64 1455.08 82.92 1464.03 76.53C1467.83 73.82 1472.4 72.32 1476.34 69.84C1488.82 62.02 1504.07 57.66 1518.31 54.81C1526.68 53.14 1535.1 52.35 1543.53 51.03C1550.23 49.98 1558.04 50.95 1564.53 51.97C1567.13 52.38 1569.87 51.62 1572.47 52.03C1577.03 52.75 1581.74 53.31 1586.31 54.19C1608.29 58.42 1631.4 68.22 1649 82.5ZM303.5 80C304.02 83.85 302.1 87.86 301.19 91.69C299.62 98.25 298.52 105.96 295.5 112C289.57 109.04 284.01 104.71 278.34 101.16C262.61 91.29 243.34 85.83 225.47 83.03C223.2 82.68 220.8 83.32 218.53 82.97C209.37 81.53 199.63 81.53 190.47 82.97C188.52 83.27 186.48 82.73 184.53 83.03C174.46 84.61 164.54 87.34 154.69 90.19C151.82 91.02 149.11 92.75 146.31 93.81C119.18 104.16 98.32 124.48 83.16 148.66C74.09 163.12 70.58 181.24 68.03 197.53C67.54 200.7 68 204.3 68 207.5C68 220.73 68.79 230.02 71.81 242.69C74.89 255.59 80.1 268.78 87.47 280.03C93.88 289.82 101.39 299.54 110.97 306.53C112.49 307.64 113.51 309.36 115.03 310.47C151.32 336.95 197.86 336.04 239.31 325.81C242.57 325.01 245.57 323.38 248.69 322.19C257.7 318.75 266.29 314.85 275 310.5C277.59 303.52 276 293.94 276 286.5C276 269.33 276 252.17 276 235C245.67 235 215.33 235 185 235C182.99 229.75 183.35 211.77 184.5 206C188.03 204.32 192.53 205 196.5 205C204.5 205 212.5 205 220.5 205C249.33 205 278.16 205 306.99 205C306.99 246.33 306.99 287.67 306.99 329C293.27 338.98 267.07 350.15 250.69 354.19C240.91 356.6 231.4 359.41 221.47 360.97C216.21 361.79 210.79 361.21 205.53 362.03C194.66 363.73 182.34 363.73 171.47 362.03C169.2 361.68 166.8 362.32 164.53 361.97C159.97 361.25 155.26 360.69 150.69 359.81C125.42 354.95 99.71 341.21 81.5 323C77.32 318.82 72.01 314.73 68.53 309.97C59.75 297.94 52.17 285.73 46.81 271.69C45.75 268.89 44.02 266.18 43.19 263.31C39.97 252.16 37.81 240.85 36.03 229.47C35.27 224.6 36.73 219.4 35.97 214.53C35.8 213.44 35.1 212.57 35.03 211.47C34.93 209.94 35.74 208.91 35.97 207.47C36.63 203.25 35.37 198.75 36.03 194.53C36.61 190.86 37.37 187.14 37.97 183.47C41.64 161 49.95 139.5 63.47 120.97C65.87 117.68 68.14 114.31 70.53 111.03C72.33 108.57 75.11 106.88 77 104.5C78.21 102.98 78.91 101.26 80.5 100C84.12 97.13 87.29 93.26 91.03 90.53C96 86.91 100.85 82.85 106.03 79.53C110.13 76.9 114.54 74.74 118.66 72.16C120.64 70.91 122.87 70.33 125 69.5C128 68.33 130.68 66.34 133.69 65.19C146.5 60.3 160.09 56.14 173.53 54.03C174.82 53.83 176.18 54.17 177.47 53.97C193.4 51.47 211.42 50.44 227.53 52.97C231.17 53.54 234.84 53.44 238.47 54.03C254.98 56.73 271.54 62.29 286.66 69.84C292.18 72.6 299.05 75.73 303.5 80ZM616.95 58C616.95 67.33 616.95 76.67 616.95 86C612.52 87.73 607.27 87 602.5 87C593.5 87 584.5 87 575.5 87C544.67 87 513.84 87 483.01 87C483.01 121.5 483.01 156 483.01 190.5C491.33 192.17 500.96 191 509.5 191C526.83 191 544.17 191 561.5 191C568.23 191 585.24 189.49 590.5 192C593.7 196.11 591.77 202.83 591.03 207.53C590.36 211.8 591 216.67 591 220.99C555 220.99 519 220.99 483.01 220.99C483.01 256.33 483.01 291.66 483.01 326.99C526 326.99 568.99 326.99 611.98 326.99C611.98 336.99 611.98 347 611.98 357C558.65 357 505.33 357 452 357C452 257.5 452 158 452 58.5C458.19 57.26 465.14 58 471.5 58C479.39 58 487.65 58.71 495.5 58C497.22 57.84 498.74 56.92 500.47 57.03C502.83 57.19 504.96 58 507.5 58C513.67 58 519.56 57.97 525.53 57.03C533.43 55.79 542.49 57 550.5 57C561.5 57 572.5 57 583.5 57C588.76 57 594.27 56.52 599.5 57C600.98 57.13 602.1 57.74 603.53 57.97C607.78 58.63 612.64 58 616.95 58ZM2333.09 293C2333.09 214.67 2333.09 136.33 2333.09 58C2338.24 55.96 2357.25 56.35 2363 57.5C2365.63 63.02 2364 75.93 2364 82.5C2364 101.5 2364 120.5 2364 139.5C2364 188.17 2364 236.83 2364 285.5C2364 301.17 2364 316.83 2364 332.5C2364 340.42 2365.04 349.29 2363.5 357C2359.11 359.09 2346.96 358.49 2342 357.5C2335.86 351.1 2329.8 341.34 2324.47 334.03C2315.38 321.58 2305.59 309.53 2296.47 297.03C2295.09 295.14 2292.91 293.86 2291.53 291.97C2286.3 284.8 2281.7 277.2 2276.47 270.03C2273.4 265.83 2269.6 262.18 2266.53 257.97C2248.14 232.77 2228.93 208.18 2210.53 182.97C2201.26 170.26 2191.74 157.74 2182.47 145.03C2180.66 142.55 2178.34 140.45 2176.53 137.97C2173.59 133.93 2170.48 130.01 2167.53 125.97C2166.33 124.32 2164.72 120.55 2162.97 119.53C2162.38 119.19 2161.63 119.26 2161 119C2161 198.33 2161 277.67 2161 357C2155.67 359.04 2136.87 358.67 2131 357.5C2128.37 351.98 2130 339.07 2130 332.5C2130 313.5 2130 294.5 2130 275.5C2130 226.83 2130 178.17 2130 129.5C2130 113.83 2130 98.17 2130 82.5C2130 74.58 2128.96 65.71 2130.5 58C2134.4 56.14 2153.33 55.93 2156.97 58.53C2159.58 60.4 2160.72 63.48 2162.53 65.97C2165.47 70 2168.58 73.93 2171.53 77.97C2173.34 80.45 2175.66 82.55 2177.47 85.03C2182.54 91.98 2187.46 99.02 2192.53 105.97C2195.33 109.8 2198.67 113.2 2201.47 117.03C2222.97 146.49 2245.04 175.51 2266.53 204.97C2273.95 215.14 2282.04 224.85 2289.47 235.03C2297.76 246.39 2306.24 257.61 2314.53 268.97C2316.34 271.45 2318.66 273.55 2320.47 276.03C2323.21 279.79 2329.94 290.91 2333.09 293ZM850.69 82.19C837.07 84.81 822.87 87.5 810.66 95.16C779.57 114.65 758.15 145.5 751.19 181.69C750.5 185.28 750.53 188.87 749.97 192.47C748.41 202.41 747.4 212.52 748.97 222.53C749.48 225.78 748.52 229.22 749.03 232.47C750.33 240.79 752.16 249.09 754.19 257.31C756.69 267.46 761.3 277.81 766.84 286.66C783.43 313.11 800.87 328.01 832.53 332.97C835.38 333.41 838.62 333 841.5 333C853.82 333 865.07 332.06 876.69 328.19C915.3 315.32 940.85 288.29 955.19 250.69C958.01 243.28 960.74 235.3 961.97 227.47C965.38 205.67 964.07 183.99 958.81 162.69C950.88 130.54 927.92 100.24 896.31 88.19C890.32 85.9 883.73 84.01 877.47 83.03C875.85 82.78 874.15 83.22 872.53 82.97C865.83 81.92 857.56 80.86 850.69 82.19ZM1907.59 173C1916.52 177.77 1918.57 175.38 1927.5 176.07C1932.72 176.47 1937.92 178.35 1942.64 180.5C1944.82 180.35 1944.27 180.95 1945.28 179C1945.91 179.96 1946.42 181.44 1947.19 182.31C1949.18 184.57 1952.69 185.83 1955.34 187.16C1965.84 192.4 1977.92 196.47 1979.97 209.53C1981.55 219.61 1972.41 228.08 1971.87 237.89C1969.13 239.37 1968.57 244.2 1966.44 246.92C1963.72 250.4 1959.77 251.07 1955.86 252.5C1955.74 257.5 1955.64 262.51 1954.73 267.45C1954.24 270.17 1952.72 272.26 1954.03 274.85C1950.77 276.33 1949.6 280.85 1947 283.5C1944.15 286.41 1941.26 290.07 1937.97 292.47C1936.24 293.73 1934.11 294.58 1932.5 296C1930.16 298.07 1928.3 301.2 1926 303.5C1926 304.31 1926 305.12 1926 305.93C1921.87 304.65 1918.7 306.5 1914.5 306.84C1911.02 307.11 1907.24 305.84 1903.89 306.45C1901.15 306.95 1898.52 308.65 1895.8 309.39C1889.87 311.01 1883.63 311.62 1877.5 311.58C1871.2 311.54 1864.82 310.48 1858.8 308.59C1856.4 307.84 1853.98 306.23 1851.49 305.85C1848.48 305.38 1845.52 306.57 1842.5 306.4C1839.88 306.26 1837.57 305.18 1835 305.8C1833.67 304.07 1832.17 303.32 1830.5 302C1827.2 299.38 1824.8 295.62 1821.5 293C1819.22 291.19 1817.08 289.63 1815 287.5C1811.64 284.07 1809.77 278.92 1806.11 275.92C1805.8 271.72 1804.02 267.58 1803.37 263.33C1802.67 258.72 1803.17 254.06 1802.54 249.5C1792.05 247.59 1795.08 245.57 1789.23 239.05C1789.07 237.32 1789.22 235.38 1788.81 233.69C1788.53 232.52 1787.62 231.44 1787.19 230.31C1783.71 221.19 1778.49 211.31 1783.19 201.69C1789.85 188.04 1808.52 189.59 1815.67 178C1816.29 178.5 1816.92 179 1817.54 179.5C1822.97 177.11 1828.51 175.04 1834.5 174.68C1837.86 174.48 1841.18 175.67 1844.46 175.49C1847.29 175.33 1850.47 173.79 1853.11 172.83C1855.6 173.01 1857.19 172.4 1859.53 172.03C1863.14 171.47 1867.86 171.67 1871.5 172C1876.38 172.44 1881.39 173.76 1886.47 172.97C1890.17 172.39 1893.6 171.65 1897.5 172C1900.93 172.31 1904.01 173 1907.59 173ZM1949.5 241.93C1952.47 244.5 1956.32 247.36 1960.24 244.74C1963.38 242.65 1963.9 237.81 1964.98 234.49C1967.73 226.03 1974.86 217.87 1973.08 208.5C1971.47 200 1962.13 197.51 1955.51 194C1946.9 189.44 1938.15 183.75 1928.33 182.35C1924.31 181.78 1920.51 183.13 1916.6 182.7C1914.1 182.42 1911.64 181 1909.21 180.37C1904.44 179.14 1899.44 178.3 1894.5 178.28C1889.82 178.25 1885.18 179.17 1880.5 179.12C1873.76 179.05 1867.35 177.67 1860.55 178.34C1855.14 178.87 1849.1 181.54 1844.48 181.86C1840.49 182.14 1836.65 180.68 1832.52 181.18C1822.41 182.41 1813.33 188.37 1804.43 192.93C1800.33 195.03 1795.5 196.4 1792.04 199.53C1781.94 208.65 1791.32 221.97 1794.56 231.9C1795.61 235.13 1795.61 240.67 1798.98 242.53C1802.9 244.7 1806.41 242.17 1809.5 239.92C1810.78 246.16 1808.7 253.05 1808.97 259.5C1809.3 267.18 1812.31 274.47 1817.01 280.48C1820.35 284.76 1824.77 287.26 1828.62 290.89C1832.25 294.3 1834.28 298.53 1839.56 299.86C1844.31 301.05 1848.23 298.58 1852.25 299.33C1856.78 300.17 1861.99 303.8 1867.55 304.77C1876.37 306.3 1885.64 306.02 1894.29 303.7C1897.18 302.92 1899.85 300.85 1902.7 300.22C1906.83 299.3 1911.58 301.77 1916.37 300.75C1922.08 299.54 1924.28 295.31 1928.13 291.64C1932.7 287.29 1938.49 285.18 1942.38 279.86C1947.74 272.53 1949.93 263.49 1949.61 254.54C1949.46 250.29 1948.78 246.11 1949.5 241.93ZM1929.5 282.75C1928.54 278.85 1928.47 274.68 1927.67 270.7C1926.27 263.83 1922.94 257.78 1920.04 251.5C1925.93 248.69 1928.2 248.57 1930.5 242.03C1932.33 242.03 1934.16 242.03 1935.99 242.03C1939.11 232.38 1923.31 225.52 1915.54 227.09C1909.58 228.3 1908.61 233.02 1905.5 237.05C1899.03 233.49 1893.38 220.27 1903.25 216.7C1909.67 214.39 1922.31 226.44 1929.5 221.29C1929.5 220.08 1929.91 219.46 1929.13 218.35C1927.68 216.29 1916.59 213.87 1913.63 212.81C1911.28 211.96 1909.02 210.96 1906.5 210.75C1894.17 209.71 1892.43 220.02 1891.5 229.47C1888.55 228.48 1885.61 227.49 1882.66 226.5C1883.15 217.2 1886.39 205.24 1897.5 203.92C1902.1 203.37 1908.02 207.4 1911.5 204.12C1911.52 199.5 1906.54 198.47 1902.5 197.96C1888.79 196.23 1887.98 202.82 1879.5 209.42C1875.18 201.43 1868.74 197.32 1859.5 197.85C1855.15 198.11 1849.47 198.74 1849.5 203.99C1853 207.19 1858.01 203.44 1862.5 203.87C1873.81 204.94 1876.21 217.42 1876.27 226.5C1873.52 227.17 1870.77 227.83 1868.02 228.5C1868.12 219.77 1864.86 210.3 1854.5 210.36C1851.29 210.37 1848.31 211.71 1845.32 212.74C1841.49 214.06 1831.73 214.79 1831.5 219.5C1839.07 225.9 1850.69 212.18 1858.23 217.29C1866.25 222.73 1860.05 233.93 1853.5 237.13C1850.08 228.73 1845.98 223.76 1835.8 226.38C1830.46 227.75 1819.82 234.28 1823.69 240.58C1825.11 240.58 1826.53 240.58 1827.95 240.58C1831.49 247.31 1833.15 247.53 1839.75 250.5C1832.53 259.6 1829.68 270.25 1827.5 281.36C1812.33 272.73 1816.12 256.66 1816.53 242.35C1816.71 235.65 1815.72 228.97 1818.03 222.51C1824.12 205.44 1837.09 189.14 1855.55 185.19C1863.64 183.46 1871.39 184.84 1879.5 184.98C1884.84 185.07 1890.13 184.19 1895.48 184.39C1919.33 185.3 1938.33 204.49 1942.81 227.55C1944.04 233.85 1942.69 240.18 1942.61 246.5C1942.44 260.9 1944.21 274.45 1929.5 282.75ZM1833.83 188.5C1825.34 195.57 1819.34 204.31 1814.84 214.37C1811.42 222.04 1809.28 230.07 1803.5 236.42C1801.4 233.8 1801.11 230.76 1799.96 227.52C1797.79 221.41 1792.24 213.71 1794.54 207.02C1795.86 203.16 1800.33 201.77 1803.64 200.14C1811.16 196.42 1825.96 186.31 1833.83 188.5ZM1956.5 239.16C1949.78 233.61 1947.54 219.71 1943.73 211.77C1941.11 206.31 1938.24 200.81 1934.47 196.05C1932.34 193.36 1928.97 191.34 1927.46 188.5C1938.29 190.03 1947.82 197.23 1957.36 202.15C1960.82 203.93 1965.78 205.31 1966.73 209.66C1967.89 214.99 1964.34 220.06 1962.18 224.66C1959.96 229.39 1958.71 234.5 1956.5 239.16ZM1844.94 236.5C1842.21 238.09 1841.09 237.32 1840.01 234.5C1842.83 232.22 1844.32 233.22 1844.94 236.5ZM1915.5 260.34C1909.34 255.09 1903.72 252.58 1897.29 248.21C1895.13 246.73 1893.58 244.55 1891.42 243.05C1886.38 239.53 1878.74 239.38 1872.89 240.48C1867.8 241.43 1865.9 244.79 1861.99 247.46C1859.18 249.37 1855.62 250.39 1852.68 252.17C1848.62 254.61 1845.17 257.66 1841.5 260.62C1841.87 255.8 1848.04 250.22 1851.39 246.89C1868.4 229.97 1884.91 228.97 1903.46 244.04C1908.06 247.78 1915.3 254.24 1915.5 260.34ZM1916.5 233.75C1921.44 236.42 1917.45 240.9 1913.75 236.5C1914.66 235.58 1915.58 234.67 1916.5 233.75ZM1872.5 249.9C1874.76 253.54 1871.6 256.1 1868.86 258.5C1871.11 260.5 1873.36 262.5 1875.61 264.5C1875.61 267.17 1875.61 269.83 1875.61 272.5C1867.88 274.77 1862.82 279.1 1857.64 285.16C1855.34 287.85 1853.19 290.77 1850.08 292.56C1845.62 295.13 1839.28 294.85 1836.18 290.3C1832.67 285.14 1834.88 278.24 1837.97 273.45C1841.78 267.54 1856.31 254.31 1863.52 254.14C1865.05 254.1 1867 254.97 1868.5 255.26C1869.93 252.79 1869.91 251.08 1872.5 249.9ZM1886.5 250.04C1887.78 251.29 1886.84 249.29 1887.81 250.76C1888.75 252.21 1887.49 254.21 1889.58 255.03C1892.24 256.07 1894.59 254.34 1898.42 256.09C1907.26 260.14 1916.64 267.88 1920.48 277.03C1922.32 281.42 1923.71 286.02 1920.95 290.39C1917.8 295.36 1911.02 295.97 1906.17 293.36C1901.48 290.85 1898.53 285.27 1895.1 281.38C1891.24 276.99 1887.37 274.64 1881.99 272.5C1881.99 269.5 1881.99 266.5 1881.99 263.5C1884.36 261.83 1886.73 260.17 1889.1 258.5C1886.14 255.93 1882.65 253.61 1886.5 250.04ZM1897.26 295.5C1887.58 301.37 1867.82 301.27 1858.6 294.5C1861.94 288.61 1868.53 280.53 1875.53 279.02C1885.12 276.95 1894.42 287.43 1897.26 295.5ZM2289.5 293C2290.89 294.45 2290.97 294.1 2289.5 296C2289.5 295 2289.5 294 2289.5 293ZM2286.5 300C2285.58 302 2284.66 304 2283.74 306C2283.74 304.5 2283.74 303 2283.74 301.5C2284.66 301 2285.58 300.5 2286.5 300Z" fill="#ffffff" fill-rule="evenodd" stroke="#ffffff" stroke-width="0.25" stroke-linejoin="round"/>
<path d="M1945.28 179C1944.27 180.95 1944.82 180.35 1942.64 180.5C1937.92 178.35 1932.72 176.47 1927.5 176.07C1918.57 175.38 1916.52 177.77 1907.59 173C1898.56 152.24 1889.53 131.48 1880.5 110.72C1876.11 113.13 1874.48 121.25 1872.41 125.91C1867.96 135.88 1863.78 145.97 1859.51 156.02C1857.22 161.4 1853.98 167.03 1853.11 172.83C1850.47 173.79 1847.29 175.33 1844.46 175.49C1841.18 175.67 1837.86 174.48 1834.5 174.68C1828.51 175.04 1822.97 177.11 1817.54 179.5C1816.92 179 1816.29 178.5 1815.67 178C1819.91 164.5 1826.81 151.79 1832.36 138.81C1842.08 116.07 1851.54 93.07 1862.35 70.82C1866.09 63.12 1869.36 55.11 1872.69 47.22C1874.66 42.58 1876.6 36.66 1880.5 33.34C1885.03 39.62 1887.67 47.63 1890.78 54.69C1896.07 66.67 1901.72 78.49 1906.94 90.51C1919.69 119.93 1934.21 148.89 1945.28 179ZM1971.87 237.89C1992.73 286.43 2013.6 334.96 2034.47 383.5C2030.57 383.25 2026.51 381.02 2022.75 379.66C2012.72 376.02 2003.03 371.51 1993.23 367.3C1967.45 356.24 1941.37 345.89 1915.55 334.9C1907.35 331.41 1899.19 327.82 1890.9 324.56C1887.8 323.34 1883.86 320.85 1880.5 320.83C1876.33 320.8 1871.18 324.22 1867.38 325.82C1857.27 330.08 1847.14 334.25 1837.05 338.53C1814.05 348.3 1790.96 357.84 1767.88 367.42C1754.34 373.04 1740.7 380.03 1726.5 383.81C1726.48 379.13 1729.62 374.16 1731.38 369.83C1735.4 359.97 1739.69 350.22 1743.93 340.45C1753.33 318.84 1763.07 297.37 1772.18 275.63C1777.38 263.23 1782.26 250.57 1789.23 239.05C1795.08 245.57 1792.05 247.59 1802.54 249.5C1803.17 254.06 1802.67 258.72 1803.37 263.33C1804.02 267.58 1805.8 271.72 1806.11 275.92C1802.53 280.32 1800.6 287.53 1798.38 292.85C1794.79 301.49 1785.42 318.09 1784.9 326.5C1789.94 326.29 1794.98 323.1 1799.61 321.17C1810.45 316.67 1825.16 311.58 1835 305.8C1837.57 305.18 1839.88 306.26 1842.5 306.4C1845.52 306.57 1848.48 305.38 1851.49 305.85C1853.98 306.23 1856.4 307.84 1858.8 308.59C1864.82 310.48 1871.2 311.54 1877.5 311.58C1883.63 311.62 1889.87 311.01 1895.8 309.39C1898.52 308.65 1901.15 306.95 1903.89 306.45C1907.24 305.84 1911.02 307.11 1914.5 306.84C1918.7 306.5 1921.87 304.65 1926 305.93C1937.4 311.86 1949.99 316.94 1962.01 321.51C1966.43 323.19 1971.44 326.62 1976.09 326.5C1968.74 309.28 1961.38 292.06 1954.03 274.85C1952.72 272.26 1954.24 270.17 1954.73 267.45C1955.64 262.51 1955.74 257.5 1955.86 252.5C1959.77 251.07 1963.72 250.4 1966.44 246.92C1968.57 244.2 1969.13 239.37 1971.87 237.89Z" fill="#e4490d" fill-rule="evenodd" stroke="#e4490d" stroke-width="0.25" stroke-linejoin="round"/>
<path d="M1949.5 241.93C1948.78 246.11 1949.46 250.29 1949.61 254.54C1949.93 263.49 1947.74 272.53 1942.38 279.86C1938.49 285.18 1932.7 287.29 1928.13 291.64C1924.28 295.31 1922.08 299.54 1916.37 300.75C1911.58 301.77 1906.83 299.3 1902.7 300.22C1899.85 300.85 1897.18 302.92 1894.29 303.7C1885.64 306.02 1876.37 306.3 1867.55 304.77C1861.99 303.8 1856.78 300.17 1852.25 299.33C1848.23 298.58 1844.31 301.05 1839.56 299.86C1834.28 298.53 1832.25 294.3 1828.62 290.89C1824.77 287.26 1820.35 284.76 1817.01 280.48C1812.31 274.47 1809.3 267.18 1808.97 259.5C1808.7 253.05 1810.78 246.16 1809.5 239.92C1806.41 242.17 1802.9 244.7 1798.98 242.53C1795.61 240.67 1795.61 235.13 1794.56 231.9C1791.32 221.97 1781.94 208.65 1792.04 199.53C1795.5 196.4 1800.33 195.03 1804.43 192.93C1813.33 188.37 1822.41 182.41 1832.52 181.18C1836.65 180.68 1840.49 182.14 1844.48 181.86C1849.1 181.54 1855.14 178.87 1860.55 178.34C1867.35 177.67 1873.76 179.05 1880.5 179.12C1885.18 179.17 1889.82 178.25 1894.5 178.28C1899.44 178.3 1904.44 179.14 1909.21 180.37C1911.64 181 1914.1 182.42 1916.6 182.7C1920.51 183.13 1924.31 181.78 1928.33 182.35C1938.15 183.75 1946.9 189.44 1955.51 194C1962.13 197.51 1971.47 200 1973.08 208.5C1974.86 217.87 1967.73 226.03 1964.98 234.49C1963.9 237.81 1963.38 242.65 1960.24 244.74C1956.32 247.36 1952.47 244.5 1949.5 241.93ZM1929.5 282.75C1944.21 274.45 1942.44 260.9 1942.61 246.5C1942.69 240.18 1944.04 233.85 1942.81 227.55C1938.33 204.49 1919.33 185.3 1895.48 184.39C1890.13 184.19 1884.84 185.07 1879.5 184.98C1871.39 184.84 1863.64 183.46 1855.55 185.19C1837.09 189.14 1824.12 205.44 1818.03 222.51C1815.72 228.97 1816.71 235.65 1816.53 242.35C1816.12 256.66 1812.33 272.73 1827.5 281.36C1829.68 270.25 1832.53 259.6 1839.75 250.5C1833.15 247.53 1831.49 247.31 1827.95 240.58C1826.53 240.58 1825.11 240.58 1823.69 240.58C1819.82 234.28 1830.46 227.75 1835.8 226.38C1845.98 223.76 1850.08 228.73 1853.5 237.13C1860.05 233.93 1866.25 222.73 1858.23 217.29C1850.69 212.18 1839.07 225.9 1831.5 219.5C1831.73 214.79 1841.49 214.06 1845.32 212.74C1848.31 211.71 1851.29 210.37 1854.5 210.36C1864.86 210.3 1868.12 219.77 1868.02 228.5C1870.77 227.83 1873.52 227.17 1876.27 226.5C1876.21 217.42 1873.81 204.94 1862.5 203.87C1858.01 203.44 1853 207.19 1849.5 203.99C1849.47 198.74 1855.15 198.11 1859.5 197.85C1868.74 197.32 1875.18 201.43 1879.5 209.42C1887.98 202.82 1888.79 196.23 1902.5 197.96C1906.54 198.47 1911.52 199.5 1911.5 204.12C1908.02 207.4 1902.1 203.37 1897.5 203.92C1886.39 205.24 1883.15 217.2 1882.66 226.5C1885.61 227.49 1888.55 228.48 1891.5 229.47C1892.43 220.02 1894.17 209.71 1906.5 210.75C1909.02 210.96 1911.28 211.96 1913.63 212.81C1916.59 213.87 1927.68 216.29 1929.13 218.35C1929.91 219.46 1929.5 220.08 1929.5 221.29C1922.31 226.44 1909.67 214.39 1903.25 216.7C1893.38 220.27 1899.03 233.49 1905.5 237.05C1908.61 233.02 1909.58 228.3 1915.54 227.09C1923.31 225.52 1939.11 232.38 1935.99 242.03C1934.16 242.03 1932.33 242.03 1930.5 242.03C1928.2 248.57 1925.93 248.69 1920.04 251.5C1922.94 257.78 1926.27 263.83 1927.67 270.7C1928.47 274.68 1928.54 278.85 1929.5 282.75ZM1833.83 188.5C1825.96 186.31 1811.16 196.42 1803.64 200.14C1800.33 201.77 1795.86 203.16 1794.54 207.02C1792.24 213.71 1797.79 221.41 1799.96 227.52C1801.11 230.76 1801.4 233.8 1803.5 236.42C1809.28 230.07 1811.42 222.04 1814.84 214.37C1819.34 204.31 1825.34 195.57 1833.83 188.5ZM1956.5 239.16C1958.71 234.5 1959.96 229.39 1962.18 224.66C1964.34 220.06 1967.89 214.99 1966.73 209.66C1965.78 205.31 1960.82 203.93 1957.36 202.15C1947.82 197.23 1938.29 190.03 1927.46 188.5C1928.97 191.34 1932.34 193.36 1934.47 196.05C1938.24 200.81 1941.11 206.31 1943.73 211.77C1947.54 219.71 1949.78 233.61 1956.5 239.16ZM1844.94 236.5C1844.32 233.22 1842.83 232.22 1840.01 234.5C1841.09 237.32 1842.21 238.09 1844.94 236.5ZM1915.5 260.34C1915.3 254.24 1908.06 247.78 1903.46 244.04C1884.91 228.97 1868.4 229.97 1851.39 246.89C1848.04 250.22 1841.87 255.8 1841.5 260.62C1845.17 257.66 1848.62 254.61 1852.68 252.17C1855.62 250.39 1859.18 249.37 1861.99 247.46C1865.9 244.79 1867.8 241.43 1872.89 240.48C1878.74 239.38 1886.38 239.53 1891.42 243.05C1893.58 244.55 1895.13 246.73 1897.29 248.21C1903.72 252.58 1909.34 255.09 1915.5 260.34ZM1916.5 233.75C1915.58 234.67 1914.66 235.58 1913.75 236.5C1917.45 240.9 1921.44 236.42 1916.5 233.75ZM1872.5 249.9C1869.91 251.08 1869.93 252.79 1868.5 255.26C1867 254.97 1865.05 254.1 1863.52 254.14C1856.31 254.31 1841.78 267.54 1837.97 273.45C1834.88 278.24 1832.67 285.14 1836.18 290.3C1839.28 294.85 1845.62 295.13 1850.08 292.56C1853.19 290.77 1855.34 287.85 1857.64 285.16C1862.82 279.1 1867.88 274.77 1875.61 272.5C1875.61 269.83 1875.61 267.17 1875.61 264.5C1873.36 262.5 1871.11 260.5 1868.86 258.5C1871.6 256.1 1874.76 253.54 1872.5 249.9ZM1886.5 250.04C1882.65 253.61 1886.14 255.93 1889.1 258.5C1886.73 260.17 1884.36 261.83 1881.99 263.5C1881.99 266.5 1881.99 269.5 1881.99 272.5C1887.37 274.64 1891.24 276.99 1895.1 281.38C1898.53 285.27 1901.48 290.85 1906.17 293.36C1911.02 295.97 1917.8 295.36 1920.95 290.39C1923.71 286.02 1922.32 281.42 1920.48 277.03C1916.64 267.88 1907.26 260.14 1898.42 256.09C1894.59 254.34 1892.24 256.07 1889.58 255.03C1887.49 254.21 1888.75 252.21 1887.81 250.76C1886.84 249.29 1887.78 251.29 1886.5 250.04ZM1897.26 295.5C1894.42 287.43 1885.12 276.95 1875.53 279.02C1868.53 280.53 1861.94 288.61 1858.6 294.5C1867.82 301.27 1887.58 301.37 1897.26 295.5Z" fill="#444547" fill-rule="evenodd" stroke="#444547" stroke-width="0.25" stroke-linejoin="round"/>
</svg>